# AST/ASF file generated using VICON BodyLanguage
# -----------------------------------------------
:version 1.10
:name VICON
:units
  mass 1.0
  length 0.45
  angle deg
:documentation
   .ast/.asf automatically generated from VICON data using
   VICON BodyBuilder and BodyLanguage model FoxedUp or BRILLIANT.MOD
:root
   order TX TY TZ RX RY RZ
   axis XYZ
   position 0 0 0  
   orientation 0 0 0 
:bonedata
  begin
     id 1 
     name lhipjoint
     direction 0.575328 -0.747301 0.332475 
     length 2.40933 
     axis 0 0 0  XYZ
  end
  begin
     id 2 
     name lfemur
     direction 0.34202 -0.939693 0  
     length 7.31453  
     axis 0 0 20  XYZ
    dof rx ry rz
    limits (-160.0 20.0)
           (-70.0 70.0)
           (-60.0 70.0)
  end
  begin
     id 3 
     name ltibia
     direction 0.34202 -0.939693 0   
     length 7.82185   
     axis 0 0 20   XYZ
    dof rx
    limits (-10.0 170.0)
  end
  begin
     id 4 
     name lfoot
     direction 0.0795993 -0.218697 0.972541   
     length 2.19173   
     axis -90 7.62852e-016 20   XYZ
    dof rx rz
    limits (-45.0 90.0)
           (-70.0 20.0)
  end
  begin
     id 5 
     name ltoes
     direction 1.53537e-011 -4.21894e-011 1   
     length 1.10023   
     axis -90 7.62852e-016 20   XYZ
    dof rx
    limits (-90.0 20.0)
  end
  begin
     id 6 
     name rhipjoint
     direction -0.513884 -0.783789 0.348708   
     length 2.29716  
     axis 0 0 0  XYZ 
  end
  begin
     id 7 
     name rfemur
     direction -0.34202 -0.939693 0   
     length 7.59573   
     axis 0 0 -20   XYZ
    dof rx ry rz
    limits (-160.0 20.0)
           (-70.0 70.0)
           (-70.0 60.0)
  end
  begin
     id 8 
     name rtibia
     direction -0.34202 -0.939693 0   
     length 7.66402   
     axis 0 0 -20   XYZ
    dof rx
    limits (-10.0 170.0)
 end
 begin
     id 9 
     name rfoot
     direction -0.137793 -0.378584 0.915253   
     length 2.27056  
     axis -90 -7.62852e-016 -20   XYZ
    dof rx rz
    limits (-45.0 90.0)
           (-20.0 70.0)
  end
  begin
     id 10 
     name rtoes
     direction -1.53493e-011 -4.22159e-011 1   
     length 1.11766   
     axis -90 -7.62852e-016 -20   XYZ
    dof rx
    limits (-90.0 20.0)
  end
  begin
     id 11 
     name lowerback
     direction -0.00732775 0.998356 -0.05685   
     length 2.16513   
     axis 0 0 0   XYZ
    dof rx ry rz
    limits (-20.0 45.0)
           (-30.0 30.0)
           (-30.0 30.0)
  end
  begin
     id 12 
     name upperback
     direction 0.0218081 0.999627 -0.0164647   
     length 2.16755   
     axis 0 0 0   XYZ
    dof rx ry rz
    limits (-20.0 45.0)
           (-30.0 30.0)
           (-30.0 30.0)
  end
  begin
     id 13 
     name thorax
     direction 0.02365 0.999661 0.0108914   
     length 2.16932   
     axis 0 0 0   XYZ
    dof rx ry rz
    limits (-20.0 45.0)
           (-30.0 30.0)
           (-30.0 30.0)
  end
  begin
     id 14 
     name lowerneck
     direction -0.0523929 0.978385 0.200044   
     length 1.63877   
     axis 0 0 0   XYZ
    dof rx ry rz
    limits (-20.0 45.0)
           (-30.0 30.0)
           (-30.0 30.0)
  end
  begin
     id 15 
     name upperneck
     direction 0.0448674 0.981321 -0.187074   
     length 1.69014   
     axis 0 0 0   XYZ
    dof rx ry rz
    limits (-20.0 45.0)
           (-30.0 30.0)
           (-30.0 30.0)
  end
  begin
     id 16
     name head
     direction 0.0199089 0.996118 -0.0857429  
     length 1.70094  
     axis 0 0 0   XYZ
    dof rx ry rz
    limits (-20.0 45.0)
           (-30.0 30.0)
           (-30.0 30.0)
  end
  begin
     id 17 
     name lclavicle
     direction 0.940366 0.30191 -0.156722  
     length 3.37521  
     axis 0 0 0   XYZ
    dof ry rz
    limits (-20.0 10.0)
           (0.0 20.0)
  end
  begin
     id 18 
     name lhumerus
     direction 1 -4.4897e-011 -1.7911e-027   
     length 5.25287   
     axis 180 -30 -90   XYZ
    dof rx ry rz
    limits (-60.0 90.0)
           (-90.0 90.0)
           (-90.0 90.0)
  end
  begin
     id 19
     name lradius
     direction 1 -4.48951e-011 1.04424e-027   
     length 3.51014   
     axis 180 -30 -90   XYZ
    dof rx
    limits (-10.0 170.0)
  end
  begin
     id 20
     name lwrist
     direction 1 -4.48997e-011 -9.5942e-028   
     length 1.75507   
     axis 8.48502e-016 90 90   XYZ
    dof ry
    limits (-180.0 0.0)
 end
  begin
     id 21 
     name lhand
     direction 1 -4.48831e-011 -1.90777e-027   
     length 0.706179   
     axis 1.22306e-015 90 90   XYZ
    dof rx rz
    limits (-90.0 90.0)
           (-45.0 45.0)
  end
  begin
     id 22 
     name lfingers
     direction 1 -4.49108e-011 -3.85244e-027   
     length 0.569339   
     axis 2.44611e-015 90 90   XYZ
    dof rx
    limits (0.0 90.0)
  end
  begin
     id 23
     name lthumb
     direction 0.707107 -6.34953e-011 0.707107   
     length 0.817461   
     axis -90 45 -1.62303e-014   XYZ
    dof rx rz
    limits (-45.0 45.0)
           (-45.0 45.0)
  end
  begin
     id 24 
     name rclavicle
     direction -0.905329 0.382405 -0.184787   
     length 3.30787  
     axis 0 0 0   XYZ 
    dof ry rz
    limits (-10.0 20.0)
           (-20.0 0.0)
  end
  begin
     id 25 
     name rhumerus
     direction -1 -4.48953e-011 -9.15316e-029  
     length 5.28721   
     axis 180 30 90   XYZ
    dof rx ry rz
    limits (-90.0 60.0)
           (-90.0 90.0)
           (-90.0 90.0)
  end
  begin
     id 26 
     name rradius
     direction -1 -4.48987e-011 9.37824e-028   
     length 3.50544   
     axis 180 30 90   XYZ
    dof rx
    limits (-10.0 170.0)
  end
  begin
     id 27 
     name rwrist
     direction -1 -4.48967e-011 -9.58414e-028   
     length 1.75272   
     axis 8.48502e-016 -90 -90   XYZ
    dof ry
    limits (-180.0 0.0)
  end
  begin
     id 28
     name rhand
     direction -1 -4.48904e-011 -1.91266e-027   
     length 0.884996   
     axis 1.22306e-015 -90 -90   XYZ
    dof rx rz
    limits (-90.0 90.0)
           (-45.0 45.0)
  end
  begin
     id 29
     name rfingers
     direction -1 -4.4909e-011 -3.85015e-027   
     length 0.713507   
     axis 2.44611e-015 -90 -90   XYZ
    dof rx
    limits (0.0 90.0)
  end
  begin
     id 30
     name rthumb
     direction -0.707107 -6.34853e-011 0.707107   
     length 1.02446   
     axis -90 -45 1.62303e-014   XYZ
    dof rx rz
    limits (-45.0 45.0)
           (-45.0 45.0)
  end
:hierarchy
  begin
    root lhipjoint rhipjoint lowerback
    lhipjoint lfemur
    lfemur ltibia
    ltibia lfoot
    lfoot ltoes
    rhipjoint rfemur
    rfemur rtibia
    rtibia rfoot
    rfoot rtoes
    lowerback upperback
    upperback thorax
    thorax lowerneck lclavicle rclavicle
    lowerneck upperneck
    upperneck head
    lclavicle lhumerus
    lhumerus lradius
    lradius lwrist
    lwrist lhand lthumb
    lhand lfingers
    rclavicle rhumerus
    rhumerus rradius
    rradius rwrist
    rwrist rhand rthumb
    rhand rfingers
  end

#!OML:ASF F:\twosubjects\two\Thursday\Session 1\justin.ASF
:FULLY-SPECIFIED
:DEGREES
1
root 11.5568 17.9178 -16.4172 6.71961 -70.7096 0.841172
lowerback -4.23927 1.55909 -1.28317
upperback -1.18878 2.07527 2.41781
thorax 1.01812 1.02858 3.30881
lowerneck -18.565 8.7779 -2.51365
upperneck 29.6813 13.7198 -1.31035
head 12.9276 5.43046 2.11063
rclavicle -4.30866e-014 -1.59028e-015
rhumerus -32.0478 -19.1745 -74.334
rradius 29.9135
rwrist -3.9549
rhand -14.1733 12.0761
rfingers 7.12502
rthumb 11.962 -17.5621
lclavicle -4.30866e-014 -1.59028e-015
lhumerus -30.9499 9.7964 85.1183
lradius 28.0258
lwrist -14.5188
lhand -1.2988 40.4455
lfingers 7.12502
lthumb 24.3458 68.9192
rfemur -8.0086 -2.19428 22.2979
rtibia 23.2546
rfoot -20.2578 -15.6787
rtoes -7.60474
lfemur -3.47874 3.34218 -16.4661
ltibia 8.31165
lfoot -9.71758 -2.00332
ltoes -16.3046
2
root 11.5577 17.9169 -16.4191 6.81677 -70.7049 0.737057
lowerback -4.1677 -0.192019 -1.98851
upperback -1.25575 -0.276408 4.09048
thorax 1.07375 -0.158608 5.33725
lowerneck -20.9324 10.5809 -6.70022
upperneck 32.4438 17.3061 1.31142
head 13.7994 6.64703 4.52421
rclavicle 1.46107e-014 6.36111e-015
rhumerus -30.2081 -12.6384 -74.9192
rradius 29.3622
rwrist -4.29179
rhand -14.4822 11.9289
rfingers 7.12502
rthumb 11.6641 -17.7265
lclavicle 1.46107e-014 6.36111e-015
lhumerus -32.4385 16.2974 84.6854
lradius 28.4792
lwrist -15.1867
lhand -1.141 40.5354
lfingers 7.12502
lthumb 24.4971 68.9887
rfemur -8.00295 -2.14908 22.3356
rtibia 23.2682
rfoot -20.3678 -15.6159
rtoes -7.514
lfemur -3.46233 3.34188 -16.426
ltibia 8.26034
lfoot -9.55959 -1.86096
ltoes -15.3001
3
root 11.5585 17.9175 -16.4171 6.80175 -70.6837 0.775652
lowerback -4.26716 1.4354 -1.36002
upperback -1.11843 1.90906 2.59971
thorax 1.10813 0.943073 3.53483
lowerneck -21.361 9.19109 -4.22958
upperneck 32.4366 14.4263 1.30047
head 14.2552 5.68829 3.76467
rclavicle 3.11595e-014 -3.18055e-015
rhumerus -31.6828 -18.0736 -74.6365
rradius 29.8124
rwrist -3.94902
rhand -15.2897 11.8448
rfingers 7.12502
rthumb 10.8853 -17.853
lclavicle 3.11595e-014 -3.18055e-015
lhumerus -30.8461 10.5256 85.1075
lradius 27.9045
lwrist -14.8243
lhand -0.877602 40.6145
lfingers 7.12502
lthumb 24.7495 69.0333
rfemur -8.02574 -2.30313 22.3082
rtibia 23.2864
rfoot -20.3727 -15.5083
rtoes -7.69956
lfemur -3.50002 3.31952 -16.4528
ltibia 8.28703
lfoot -9.53325 -1.77547
ltoes -15.1526
4
root 11.5598 17.9178 -16.4144 6.94932 -70.6522 0.668467
lowerback -4.26206 -0.0772626 -1.80472
upperback -1.26855 -0.126659 3.93813
thorax 1.09689 -0.0827972 5.08
lowerneck -20.7515 10.5448 -6.46499
upperneck 32.1352 17.1917 1.11713
head 13.6827 6.62726 4.36974
rclavicle 2.28105e-014 -4.77083e-015
rhumerus -30.3848 -12.7227 -75.1218
rradius 29.427
rwrist -4.74469
rhand -15.2236 11.9687
rfingers 7.12502
rthumb 10.9491 -17.7258
lclavicle 2.28105e-014 -4.77083e-015
lhumerus -32.3913 15.9902 84.5557
lradius 28.4532
lwrist -15.3783
lhand -0.558463 40.4696
lfingers 7.12502
lthumb 25.0554 68.8461
rfemur -8.08123 -2.40677 22.3432
rtibia 23.2848
rfoot -20.3292 -15.5057
rtoes -8.17945
lfemur -3.55091 3.29456 -16.4284
ltibia 8.27346
lfoot -9.53381 -1.84598
ltoes -15.707
5
root 11.5609 17.9167 -16.4167 7.04832 -70.6543 0.562261
lowerback -4.26251 1.60547 -1.10536
upperback -1.13167 2.12935 2.3938
thorax 1.09373 1.0543 3.18841
lowerneck -21.0676 9.11177 -3.72336
upperneck 31.9069 14.2544 0.772682
head 14.0686 5.63682 3.41236
rclavicle 2.95195e-014 1.03368e-014
rhumerus -31.9146 -18.7698 -74.6341
rradius 29.8171
rwrist -3.99824
rhand -15.35 12.1979
rfingers 7.12502
rthumb 10.8271 -17.503
lclavicle 2.95195e-014 1.03368e-014
lhumerus -30.8326 10.1179 84.9179
lradius 28.0775
lwrist -15.0504
lhand 0.0127422 40.5631
lfingers 7.12502
lthumb 25.6026 68.8621
rfemur -8.09339 -2.2843 22.394
rtibia 23.2982
rfoot -20.3402 -15.5924
rtoes -8.36032
lfemur -3.50454 3.30226 -16.3752
ltibia 8.17511
lfoot -9.58063 -1.90776
ltoes -15.5688
6
root 11.5602 17.9163 -16.4187 6.54533 -70.7509 0.989251
lowerback -4.12872 0.0717678 -1.90906
upperback -1.25474 0.0805629 3.83667
thorax 1.01539 0.0234823 5.04311
lowerneck -18.09 10.0803 -5.03273
upperneck 29.3392 16.4241 -1.65779
head 12.4808 6.32547 2.71202
rclavicle -2.12203e-014 3.18055e-015
rhumerus -30.5993 -13.0884 -75.0606
rradius 29.3525
rwrist -3.58449
rhand -16.0126 11.8878
rfingers 7.12502
rthumb 10.188 -17.8456
lclavicle -2.12203e-014 3.18055e-015
lhumerus -32.4406 15.8199 84.5122
lradius 28.5462
lwrist -15.5841
lhand 0.289811 40.5427
lfingers 7.12502
lthumb 25.8679 68.8033
rfemur -7.9838 -2.16728 22.2271
rtibia 23.3083
rfoot -20.3636 -15.5948
rtoes -8.16674
lfemur -3.32645 3.37448 -16.53
ltibia 8.07545
lfoot -9.63055 -1.975
ltoes -14.7537
7
root 11.5585 17.9176 -16.4175 5.91858 -70.8376 1.57531
lowerback -4.13639 1.64727 -1.48125
upperback -1.12433 2.20363 2.33668
thorax 1.01393 1.09299 3.3402
lowerneck -17.7658 8.6327 -2.08571
upperneck 28.7657 13.587 -2.33617
head 12.5255 5.34528 1.57415
rclavicle 3.87133e-014 4.77083e-015
rhumerus -32.0563 -18.9213 -74.5887
rradius 29.7029
rwrist -2.92024
rhand -15.9677 11.8866
rfingers 7.12502
rthumb 10.2313 -17.8446
lclavicle 3.87133e-014 4.77083e-015
lhumerus -30.9647 10.2056 84.9097
lradius 28.0911
lwrist -15.0791
lhand 0.360501 40.8626
lfingers 7.12502
lthumb 25.9356 69.1133
rfemur -7.89097 -2.16559 21.9947
rtibia 23.3099
rfoot -20.4009 -15.5445
rtoes -8.06119
lfemur -3.18537 3.43284 -16.7592
ltibia 7.98133
lfoot -9.56761 -2.0381
ltoes -15.2724
8
root 11.5572 17.9194 -16.4177 5.9961 -70.7651 1.52785
lowerback -4.15243 -0.0266787 -2.12223
upperback -1.22011 -0.0424355 3.86007
thorax 1.07672 -0.0397602 5.18363
lowerneck -17.3253 10.0875 -4.8394
upperneck 28.5477 16.4461 -2.37221
head 12.1111 6.33438 2.35027
rclavicle 2.99668e-014 1.59028e-014
rhumerus -30.406 -13.548 -74.8966
rradius 29.184
rwrist -4.0283
rhand -14.7784 12.3321
rfingers 7.12502
rthumb 11.3785 -17.3392
lclavicle 2.99668e-014 1.59028e-014
lhumerus -32.457 16.0328 84.507
lradius 28.679
lwrist -15.4201
lhand 0.524396 41.4551
lfingers 7.12502
lthumb 26.0926 69.6827
rfemur -7.93574 -2.22832 22.0336
rtibia 23.3151
rfoot -20.3329 -15.654
rtoes -8.35742
lfemur -3.17655 3.36477 -16.732
ltibia 7.88103
lfoot -9.58211 -2.03949
ltoes -16.5776
9
root 11.5569 17.9187 -16.42 6.22228 -70.6779 1.32756
lowerback -4.23435 1.60421 -1.38915
upperback -1.16532 2.14201 2.34353
thorax 1.03396 1.06197 3.29517
lowerneck -17.8642 8.72056 -2.00125
upperneck 29.0243 13.6904 -2.26535
head 12.6502 5.39128 1.61687
rclavicle -2.35063e-014 -1.03368e-014
rhumerus -32.0571 -19.5329 -74.3281
rradius 29.6798
rwrist -3.87818
rhand -14.4021 12.4739
rfingers 7.12502
rthumb 11.7414 -17.177
lclavicle -2.35063e-014 -1.03368e-014
lhumerus -31.0312 9.93934 84.8934
lradius 28.2285
lwrist -14.9019
lhand 0.967272 41.4147
lfingers 7.12502
lthumb 26.5165 69.579
rfemur -7.99014 -2.28091 22.1324
rtibia 23.3186
rfoot -20.2439 -15.7487
rtoes -8.15272
lfemur -3.20272 3.28871 -16.6426
ltibia 7.84631
lfoot -9.67428 -2.03359
ltoes -17.1811
